<?xml version="1.0" encoding="UTF-8"?>
<svg id="Layer_2" data-name="Layer 2" xmlns="http://www.w3.org/2000/svg" viewBox="0 0 1487.25 879.69">
  <defs>
    <style>
      .cls-1 {
        fill: #222;
      }

      .cls-1, .cls-2, .cls-3, .cls-4, .cls-5 {
        stroke-width: 0px;
      }

      .cls-2 {
        fill: #37383f;
      }

      .cls-6 {
        fill: #999;
      }

      .cls-6, .cls-7 {
        font-size: 13px;
      }

      .cls-6, .cls-8 {
        font-family: CascadiaCode-Italic, 'Cascadia Code';
        font-style: italic;
        font-variation-settings: 'wght' 400;
      }

      .cls-9 {
        fill: #fff;
      }

      .cls-9, .cls-10, .cls-7 {
        font-family: CascadiaCode-Regular, 'Cascadia Code';
      }

      .cls-9, .cls-8 {
        font-size: 14px;
      }

      .cls-10 {
        fill: #ededed;
        font-size: 30px;
        stroke: #ededed;
      }

      .cls-7, .cls-5 {
        fill: #d7d7d9;
      }

      .cls-3 {
        fill: #fec311;
      }

      .cls-4 {
        fill: #666;
      }

      .cls-11 {
        fill: none;
        stroke: #111;
        stroke-width: 2px;
      }

      .cls-8 {
        fill: #000;
        isolation: isolate;
      }
    </style>
  </defs>
  <g id="Layer_1-2" data-name="Layer 1">
    <path class="cls-3" d="M1457.25,879.69H30c-16.57,0-30-13.43-30-30V67.41h1487.25v782.28c0,16.57-13.43,30-30,30Z"/>
    <path class="cls-1" d="M30,0h1427.25c16.56,0,30,13.44,30,30v37.41H0V30C0,13.44,13.44,0,30,0Z"/>
    <text class="cls-10" transform="translate(295.38 42.32)"><tspan x="0" y="0">Blue Waters Amusement Park - DATABASE DESIGN SCHEMA</tspan></text>
    <path class="cls-11" d="M983.16,604.26h91.22c6.67,0,10-3.33,10-10v-168.88c0-6.67-3.33-10-10-10h-66.1,66.1c6.67,0,10,3.33,10,10v168.88c0,6.67-3.33,10-10,10h-91.22ZM993.16,600.26v8M1008.29,411.38l10,4-10,4"/>
    <path class="cls-11" d="M409.9,159.38h-41.26c-6.67,0-10,3.33-10,10v12c0,6.67-3.33,10-10,10h-41.26,41.26c6.67,0,10-3.33,10-10v-12c0-6.67,3.33-10,10-10h41.26ZM399.9,155.38v8M307.39,187.38l10,4-10,4"/>
    <path class="cls-11" d="M710.59,159.38h-42.12c-6.67,0-10,3.33-10,10v374.3c0,6.67-3.33,10-10,10h-256.95c-6.67,0-10-3.33-10-10v-209.21c0-6.67-3.33-10-10-10H43.99c-6.67,0-10-3.33-10-10v-81.09c0-6.67,3.33-10,10-10h10-10c-6.67,0-10,3.33-10,10v81.09c0,6.67,3.33,10,10,10h327.54c6.67,0,10,3.33,10,10v209.21c0,6.67,3.33,10,10,10h256.95c6.67,0,10-3.33,10-10V169.38c0-6.67,3.33-10,10-10h42.12ZM700.59,155.38v8M53.99,219.38l-10,4,10,4"/>
    <path class="cls-11" d="M1008.29,159.38h40.45c6.67,0,10,3.33,10,10v488.88c0,6.67-3.33,10-10,10h-65.58,65.58c6.67,0,10-3.33,10-10V169.38c0-6.67-3.33-10-10-10h-40.45ZM1018.29,155.38v8M983.16,664.26l10,4-10,4"/>
    <path class="cls-11" d="M638.47,636.26h38.62c6.67,0,10,3.33,10,10v44c0,6.67,3.33,10,10,10h38.62-38.62c-6.67,0-10-3.33-10-10v-44c0-6.67-3.33-10-10-10h-38.62ZM648.47,632.26v8M735.72,696.26l-10,4,10,4"/>
    <path class="cls-11" d="M710.59,159.38h-202.62c-6.67,0-10,3.33-10,10v250.4c0,6.67-3.33,10-10,10h-202.62,202.62c6.67,0,10-3.33,10-10v-250.4c0-6.67,3.33-10,10-10h202.62ZM700.59,155.38v8M285.35,425.78l10,4-10,4"/>
    <path class="cls-11" d="M411.13,159.38h-42.66c-6.67,0-10,3.33-10,10v282.4c0,6.67-3.33,10-10,10h-63.89,63.89c6.67,0,10-3.33,10-10V169.38c0-6.67,3.33-10,10-10h42.66ZM401.13,155.38v8M284.58,457.78l10,4-10,4"/>
    <path class="cls-11" d="M1008.29,159.38h92.01c6.67,0,10,3.33,10,10v552.88c0,6.67,3.33,10,10,10h40.72-40.72c-6.67,0-10-3.33-10-10V169.38c0-6.67-3.33-10-10-10h-92.01ZM1018.29,155.38v8M1161.02,728.26l-10,4,10,4"/>
    <path class="cls-11" d="M1395.81,159.38h47.45c6.67,0,10,3.33,10,10v584.88c0,6.67-3.33,10-10,10h-43.66,43.66c6.67,0,10-3.33,10-10V169.38c0-6.67-3.33-10-10-10h-47.45ZM1405.81,155.38v8M1399.6,760.26l10,4-10,4"/>
    <g>
      <text class="cls-8" transform="translate(987.16 596.26)"><tspan x="0" y="0">1</tspan></text>
      <text class="cls-8" transform="translate(1012.29 407.38)"><tspan x="0" y="0">*</tspan></text>
      <text class="cls-8" transform="translate(400.19 151.38)"><tspan x="0" y="0">1</tspan></text>
      <text class="cls-8" transform="translate(311.39 183.38)"><tspan x="0" y="0">*</tspan></text>
      <text class="cls-8" transform="translate(700.88 151.38)"><tspan x="0" y="0">1</tspan></text>
      <text class="cls-8" transform="translate(44.28 215.38)"><tspan x="0" y="0">*</tspan></text>
      <text class="cls-8" transform="translate(1012.29 151.38)"><tspan x="0" y="0">1</tspan></text>
      <text class="cls-8" transform="translate(987.16 660.26)"><tspan x="0" y="0">*</tspan></text>
      <text class="cls-8" transform="translate(642.47 628.26)"><tspan x="0" y="0">1</tspan></text>
      <text class="cls-8" transform="translate(726 692.26)"><tspan x="0" y="0">*</tspan></text>
      <text class="cls-8" transform="translate(700.88 151.38)"><tspan x="0" y="0">1</tspan></text>
      <text class="cls-8" transform="translate(289.35 421.78)"><tspan x="0" y="0">*</tspan></text>
      <text class="cls-8" transform="translate(400.19 151.38)"><tspan x="0" y="0">1</tspan></text>
      <text class="cls-8" transform="translate(292.28 454.01)"><tspan x="0" y="0">*</tspan></text>
      <text class="cls-8" transform="translate(1012.29 151.38)"><tspan x="0" y="0">1</tspan></text>
      <text class="cls-8" transform="translate(1151.31 724.26)"><tspan x="0" y="0">*</tspan></text>
      <text class="cls-8" transform="translate(1399.81 151.38)"><tspan x="0" y="0">1</tspan></text>
      <text class="cls-8" transform="translate(1403.6 756.26)"><tspan x="0" y="0">*</tspan></text>
    </g>
    <rect class="cls-1" x="710.59" y="111.38" width="297.7" height="32"/>
    <text class="cls-9" transform="translate(720.59 130.63)"><tspan x="0" y="0">Rides</tspan></text>
    <rect class="cls-2" x="710.59" y="143.38" width="297.7" height="32"/>
    <text class="cls-7" transform="translate(720.59 162.63)"><tspan x="0" y="0">RideID</tspan></text>
    <path class="cls-5" d="M777.54,153.62c1.63,0,2.95,1.32,2.95,2.95s-1.32,2.95-2.95,2.95c-.39,0-.76-.08-1.1-.21l-.87.87h-.66v.98h-.98v.98h-1.97v-1.97l2.75-2.75c-.08-.28-.13-.57-.13-.86,0-1.63,1.32-2.95,2.95-2.95ZM777.54,152.63c-2.17,0-3.94,1.76-3.94,3.94,0,.18.01.36.04.54l-2.52,2.52c-.09.09-.14.22-.14.35v2.66c0,.27.22.49.49.49h2.95c.27,0,.49-.22.49-.49v-.49h.49c.27,0,.49-.22.49-.49v-.41l.82-.82c.27.06.54.09.82.09,2.17,0,3.94-1.76,3.94-3.94s-1.76-3.94-3.94-3.94ZM777.54,155.58c0,.54.44.98.98.98s.98-.44.98-.98-.44-.98-.98-.98-.98.44-.98.98Z"/>
    <text class="cls-6" transform="translate(943.33 162.63)"><tspan x="0" y="0">INTEGER</tspan></text>
    <rect class="cls-2" x="710.59" y="175.38" width="297.7" height="32"/>
    <text class="cls-7" transform="translate(720.59 194.63)"><tspan x="0" y="0">Name</tspan></text>
    <path class="cls-4" d="M976.29,181.88h20s2,0,2,2v12s0,2-2,2h-20s-2,0-2-2v-12s0-2,2-2"/>
    <path class="cls-5" d="M985.1,194.38h-1.17l-4.75-7.56h-.05c.01.2.03.43.04.69.02.25.03.53.04.82.01.29.02.58.02.88v5.17h-.94v-9h1.16l4.73,7.53h.04c0-.14-.02-.35-.03-.61-.01-.27-.02-.55-.04-.86,0-.31-.01-.59-.01-.86v-5.21h.95v9Z"/>
    <path class="cls-5" d="M994.29,194.38h-1.17l-4.75-7.56h-.05c.01.2.03.43.04.69.02.25.03.53.04.82.01.29.02.58.02.88v5.17h-.94v-9h1.16l4.73,7.53h.04c0-.14-.02-.35-.03-.61-.01-.27-.02-.55-.04-.86,0-.31-.01-.59-.01-.86v-5.21h.95v9Z"/>
    <text class="cls-6" transform="translate(941.24 194.63)"><tspan x="0" y="0">TEXT</tspan></text>
    <rect class="cls-2" x="710.59" y="207.38" width="297.7" height="32"/>
    <text class="cls-7" transform="translate(720.59 226.63)"><tspan x="0" y="0">Type</tspan></text>
    <path class="cls-4" d="M976.29,213.88h20s2,0,2,2v12s0,2-2,2h-20s-2,0-2-2v-12s0-2,2-2"/>
    <path class="cls-5" d="M985.1,226.38h-1.17l-4.75-7.56h-.05c.01.2.03.43.04.69.02.25.03.53.04.82.01.29.02.58.02.88v5.17h-.94v-9h1.16l4.73,7.53h.04c0-.14-.02-.35-.03-.61-.01-.27-.02-.55-.04-.86,0-.31-.01-.59-.01-.86v-5.21h.95v9Z"/>
    <path class="cls-5" d="M994.29,226.38h-1.17l-4.75-7.56h-.05c.01.2.03.43.04.69.02.25.03.53.04.82.01.29.02.58.02.88v5.17h-.94v-9h1.16l4.73,7.53h.04c0-.14-.02-.35-.03-.61-.01-.27-.02-.55-.04-.86,0-.31-.01-.59-.01-.86v-5.21h.95v9Z"/>
    <text class="cls-6" transform="translate(941.24 226.63)"><tspan x="0" y="0">TEXT</tspan></text>
    <rect class="cls-2" x="710.59" y="239.38" width="297.7" height="32"/>
    <text class="cls-7" transform="translate(720.59 258.63)"><tspan x="0" y="0">Capacity</tspan></text>
    <path class="cls-4" d="M976.29,245.88h20s2,0,2,2v12s0,2-2,2h-20s-2,0-2-2v-12s0-2,2-2"/>
    <path class="cls-5" d="M985.1,258.38h-1.17l-4.75-7.56h-.05c.01.2.03.43.04.69.02.25.03.53.04.82.01.29.02.58.02.88v5.17h-.94v-9h1.16l4.73,7.53h.04c0-.14-.02-.35-.03-.61-.01-.27-.02-.55-.04-.86,0-.31-.01-.59-.01-.86v-5.21h.95v9Z"/>
    <path class="cls-5" d="M994.29,258.38h-1.17l-4.75-7.56h-.05c.01.2.03.43.04.69.02.25.03.53.04.82.01.29.02.58.02.88v5.17h-.94v-9h1.16l4.73,7.53h.04c0-.14-.02-.35-.03-.61-.01-.27-.02-.55-.04-.86,0-.31-.01-.59-.01-.86v-5.21h.95v9Z"/>
    <text class="cls-6" transform="translate(917.79 258.63)"><tspan x="0" y="0">INTEGER</tspan></text>
    <rect class="cls-2" x="710.59" y="271.38" width="297.7" height="32"/>
    <text class="cls-7" transform="translate(720.59 290.63)"><tspan x="0" y="0">HeightRestriction</tspan></text>
    <path class="cls-4" d="M976.29,277.88h20s2,0,2,2v12s0,2-2,2h-20s-2,0-2-2v-12s0-2,2-2"/>
    <path class="cls-5" d="M985.1,290.38h-1.17l-4.75-7.56h-.05c.01.2.03.43.04.69.02.25.03.53.04.82.01.29.02.58.02.88v5.17h-.94v-9h1.16l4.73,7.53h.04c0-.14-.02-.35-.03-.61-.01-.27-.02-.55-.04-.86,0-.31-.01-.59-.01-.86v-5.21h.95v9Z"/>
    <path class="cls-5" d="M994.29,290.38h-1.17l-4.75-7.56h-.05c.01.2.03.43.04.69.02.25.03.53.04.82.01.29.02.58.02.88v5.17h-.94v-9h1.16l4.73,7.53h.04c0-.14-.02-.35-.03-.61-.01-.27-.02-.55-.04-.86,0-.31-.01-.59-.01-.86v-5.21h.95v9Z"/>
    <text class="cls-6" transform="translate(881.22 290.63)"><tspan x="0" y="0">DECIMAL(5,2)</tspan></text>
    <rect class="cls-2" x="710.59" y="303.38" width="297.7" height="32"/>
    <text class="cls-7" transform="translate(720.59 322.63)"><tspan x="0" y="0">AgeRestriction</tspan></text>
    <text class="cls-6" transform="translate(909.22 322.63)"><tspan x="0" y="0">DECIMAL(5,2)</tspan></text>
    <rect class="cls-2" x="710.59" y="335.38" width="297.7" height="32"/>
    <text class="cls-7" transform="translate(720.59 354.63)"><tspan x="0" y="0">Priority</tspan></text>
    <path class="cls-4" d="M976.29,341.88h20s2,0,2,2v12s0,2-2,2h-20s-2,0-2-2v-12s0-2,2-2"/>
    <path class="cls-5" d="M985.1,354.38h-1.17l-4.75-7.56h-.05c.01.2.03.43.04.69.02.25.03.53.04.82.01.29.02.58.02.88v5.17h-.94v-9h1.16l4.73,7.53h.04c0-.14-.02-.35-.03-.61-.01-.27-.02-.55-.04-.86,0-.31-.01-.59-.01-.86v-5.21h.95v9Z"/>
    <path class="cls-5" d="M994.29,354.38h-1.17l-4.75-7.56h-.05c.01.2.03.43.04.69.02.25.03.53.04.82.01.29.02.58.02.88v5.17h-.94v-9h1.16l4.73,7.53h.04c0-.14-.02-.35-.03-.61-.01-.27-.02-.55-.04-.86,0-.31-.01-.59-.01-.86v-5.21h.95v9Z"/>
    <text class="cls-6" transform="translate(941.24 354.63)"><tspan x="0" y="0">TEXT</tspan></text>
    <rect class="cls-2" x="710.59" y="367.38" width="297.7" height="32"/>
    <text class="cls-7" transform="translate(720.59 386.63)"><tspan x="0" y="0">Status</tspan></text>
    <path class="cls-4" d="M976.29,373.88h20s2,0,2,2v12s0,2-2,2h-20s-2,0-2-2v-12s0-2,2-2"/>
    <path class="cls-5" d="M985.1,386.38h-1.17l-4.75-7.56h-.05c.01.2.03.43.04.69.02.25.03.53.04.82.01.29.02.58.02.88v5.17h-.94v-9h1.16l4.73,7.53h.04c0-.14-.02-.35-.03-.61-.01-.27-.02-.55-.04-.86,0-.31-.01-.59-.01-.86v-5.21h.95v9Z"/>
    <path class="cls-5" d="M994.29,386.38h-1.17l-4.75-7.56h-.05c.01.2.03.43.04.69.02.25.03.53.04.82.01.29.02.58.02.88v5.17h-.94v-9h1.16l4.73,7.53h.04c0-.14-.02-.35-.03-.61-.01-.27-.02-.55-.04-.86,0-.31-.01-.59-.01-.86v-5.21h.95v9Z"/>
    <text class="cls-6" transform="translate(941.24 386.63)"><tspan x="0" y="0">TEXT</tspan></text>
    <rect class="cls-2" x="710.59" y="399.38" width="297.7" height="32"/>
    <text class="cls-7" transform="translate(720.59 418.63)"><tspan x="0" y="0">LastMaintenance</tspan></text>
    <text class="cls-6" transform="translate(977.71 418.63)"><tspan x="0" y="0">INT</tspan></text>
    <rect class="cls-2" x="710.59" y="431.38" width="297.7" height="32"/>
    <text class="cls-7" transform="translate(720.59 450.63)"><tspan x="0" y="0">Location</tspan></text>
    <text class="cls-6" transform="translate(969.24 450.63)"><tspan x="0" y="0">TEXT</tspan></text>
    <rect class="cls-2" x="710.59" y="463.38" width="297.7" height="32"/>
    <text class="cls-7" transform="translate(720.59 482.63)"><tspan x="0" y="0">Description</tspan></text>
    <text class="cls-6" transform="translate(969.24 482.63)"><tspan x="0" y="0">TEXT</tspan></text>
    <rect class="cls-1" x="409.9" y="111.38" width="210.37" height="32"/>
    <text class="cls-9" transform="translate(419.9 130.63)"><tspan x="0" y="0">Visitors</tspan></text>
    <rect class="cls-2" x="409.9" y="143.38" width="210.37" height="32"/>
    <text class="cls-7" transform="translate(419.9 162.63)"><tspan x="0" y="0">VisitorID</tspan></text>
    <path class="cls-5" d="M499.83,153.62c1.63,0,2.95,1.32,2.95,2.95s-1.32,2.95-2.95,2.95c-.39,0-.76-.08-1.1-.21l-.87.87h-.66v.98h-.98v.98h-1.97v-1.97l2.75-2.75c-.08-.28-.13-.57-.13-.86,0-1.63,1.32-2.95,2.95-2.95ZM499.83,152.63c-2.17,0-3.94,1.76-3.94,3.94,0,.18.01.36.04.54l-2.52,2.52c-.09.09-.14.22-.14.35v2.66c0,.27.22.49.49.49h2.95c.27,0,.49-.22.49-.49v-.49h.49c.27,0,.49-.22.49-.49v-.41l.82-.82c.27.06.54.09.82.09,2.17,0,3.94-1.76,3.94-3.94s-1.76-3.94-3.94-3.94ZM499.83,155.58c0,.54.44.98.98.98s.98-.44.98-.98-.44-.98-.98-.98-.98.44-.98.98Z"/>
    <text class="cls-6" transform="translate(555.32 162.63)"><tspan x="0" y="0">INTEGER</tspan></text>
    <rect class="cls-2" x="409.9" y="175.38" width="210.37" height="32"/>
    <text class="cls-7" transform="translate(419.9 194.63)"><tspan x="0" y="0">FirstName</tspan></text>
    <path class="cls-4" d="M588.28,181.88h20s2,0,2,2v12s0,2-2,2h-20s-2,0-2-2v-12s0-2,2-2"/>
    <path class="cls-5" d="M597.09,194.38h-1.17l-4.75-7.56h-.05c.01.2.03.43.04.69.02.25.03.53.04.82.01.29.02.58.02.88v5.17h-.94v-9h1.16l4.73,7.53h.04c0-.14-.02-.35-.03-.61-.01-.27-.02-.55-.04-.86,0-.31-.01-.59-.01-.86v-5.21h.95v9Z"/>
    <path class="cls-5" d="M606.28,194.38h-1.17l-4.75-7.56h-.05c.01.2.03.43.04.69.02.25.03.53.04.82.01.29.02.58.02.88v5.17h-.94v-9h1.16l4.73,7.53h.04c0-.14-.02-.35-.03-.61-.01-.27-.02-.55-.04-.86,0-.31-.01-.59-.01-.86v-5.21h.95v9Z"/>
    <text class="cls-6" transform="translate(553.22 194.63)"><tspan x="0" y="0">TEXT</tspan></text>
    <rect class="cls-2" x="409.9" y="207.38" width="210.37" height="32"/>
    <text class="cls-7" transform="translate(419.9 226.63)"><tspan x="0" y="0">LastName</tspan></text>
    <path class="cls-4" d="M588.28,213.88h20s2,0,2,2v12s0,2-2,2h-20s-2,0-2-2v-12s0-2,2-2"/>
    <path class="cls-5" d="M597.09,226.38h-1.17l-4.75-7.56h-.05c.01.2.03.43.04.69.02.25.03.53.04.82.01.29.02.58.02.88v5.17h-.94v-9h1.16l4.73,7.53h.04c0-.14-.02-.35-.03-.61-.01-.27-.02-.55-.04-.86,0-.31-.01-.59-.01-.86v-5.21h.95v9Z"/>
    <path class="cls-5" d="M606.28,226.38h-1.17l-4.75-7.56h-.05c.01.2.03.43.04.69.02.25.03.53.04.82.01.29.02.58.02.88v5.17h-.94v-9h1.16l4.73,7.53h.04c0-.14-.02-.35-.03-.61-.01-.27-.02-.55-.04-.86,0-.31-.01-.59-.01-.86v-5.21h.95v9Z"/>
    <text class="cls-6" transform="translate(553.22 226.63)"><tspan x="0" y="0">TEXT</tspan></text>
    <rect class="cls-2" x="409.9" y="239.38" width="210.37" height="32"/>
    <text class="cls-7" transform="translate(419.9 258.63)"><tspan x="0" y="0">Age</tspan></text>
    <path class="cls-4" d="M588.28,245.88h20s2,0,2,2v12s0,2-2,2h-20s-2,0-2-2v-12s0-2,2-2"/>
    <path class="cls-5" d="M597.09,258.38h-1.17l-4.75-7.56h-.05c.01.2.03.43.04.69.02.25.03.53.04.82.01.29.02.58.02.88v5.17h-.94v-9h1.16l4.73,7.53h.04c0-.14-.02-.35-.03-.61-.01-.27-.02-.55-.04-.86,0-.31-.01-.59-.01-.86v-5.21h.95v9Z"/>
    <path class="cls-5" d="M606.28,258.38h-1.17l-4.75-7.56h-.05c.01.2.03.43.04.69.02.25.03.53.04.82.01.29.02.58.02.88v5.17h-.94v-9h1.16l4.73,7.53h.04c0-.14-.02-.35-.03-.61-.01-.27-.02-.55-.04-.86,0-.31-.01-.59-.01-.86v-5.21h.95v9Z"/>
    <text class="cls-6" transform="translate(529.78 258.63)"><tspan x="0" y="0">INTEGER</tspan></text>
    <rect class="cls-2" x="409.9" y="271.38" width="210.37" height="32"/>
    <text class="cls-7" transform="translate(419.9 290.63)"><tspan x="0" y="0">Gender</tspan></text>
    <path class="cls-4" d="M588.28,277.88h20s2,0,2,2v12s0,2-2,2h-20s-2,0-2-2v-12s0-2,2-2"/>
    <path class="cls-5" d="M597.09,290.38h-1.17l-4.75-7.56h-.05c.01.2.03.43.04.69.02.25.03.53.04.82.01.29.02.58.02.88v5.17h-.94v-9h1.16l4.73,7.53h.04c0-.14-.02-.35-.03-.61-.01-.27-.02-.55-.04-.86,0-.31-.01-.59-.01-.86v-5.21h.95v9Z"/>
    <path class="cls-5" d="M606.28,290.38h-1.17l-4.75-7.56h-.05c.01.2.03.43.04.69.02.25.03.53.04.82.01.29.02.58.02.88v5.17h-.94v-9h1.16l4.73,7.53h.04c0-.14-.02-.35-.03-.61-.01-.27-.02-.55-.04-.86,0-.31-.01-.59-.01-.86v-5.21h.95v9Z"/>
    <text class="cls-6" transform="translate(553.22 290.63)"><tspan x="0" y="0">TEXT</tspan></text>
    <rect class="cls-2" x="409.9" y="303.38" width="210.37" height="32"/>
    <text class="cls-7" transform="translate(419.9 322.63)"><tspan x="0" y="0">Email</tspan></text>
    <path class="cls-4" d="M588.28,309.88h20s2,0,2,2v12s0,2-2,2h-20s-2,0-2-2v-12s0-2,2-2"/>
    <path class="cls-5" d="M597.09,322.38h-1.17l-4.75-7.56h-.05c.01.2.03.43.04.69.02.25.03.53.04.82.01.29.02.58.02.88v5.17h-.94v-9h1.16l4.73,7.53h.04c0-.14-.02-.35-.03-.61-.01-.27-.02-.55-.04-.86,0-.31-.01-.59-.01-.86v-5.21h.95v9Z"/>
    <path class="cls-5" d="M606.28,322.38h-1.17l-4.75-7.56h-.05c.01.2.03.43.04.69.02.25.03.53.04.82.01.29.02.58.02.88v5.17h-.94v-9h1.16l4.73,7.53h.04c0-.14-.02-.35-.03-.61-.01-.27-.02-.55-.04-.86,0-.31-.01-.59-.01-.86v-5.21h.95v9Z"/>
    <text class="cls-6" transform="translate(553.22 322.63)"><tspan x="0" y="0">TEXT</tspan></text>
    <rect class="cls-2" x="409.9" y="335.38" width="210.37" height="32"/>
    <text class="cls-7" transform="translate(419.9 354.63)"><tspan x="0" y="0">PhoneNumber</tspan></text>
    <text class="cls-6" transform="translate(581.22 354.63)"><tspan x="0" y="0">TEXT</tspan></text>
    <rect class="cls-2" x="409.9" y="367.38" width="210.37" height="32"/>
    <text class="cls-7" transform="translate(419.9 386.63)"><tspan x="0" y="0">Address</tspan></text>
    <text class="cls-6" transform="translate(581.22 386.63)"><tspan x="0" y="0">TEXT</tspan></text>
    <rect class="cls-2" x="409.9" y="399.38" width="210.37" height="32"/>
    <text class="cls-7" transform="translate(419.9 418.63)"><tspan x="0" y="0">City</tspan></text>
    <text class="cls-6" transform="translate(581.22 418.63)"><tspan x="0" y="0">TEXT</tspan></text>
    <rect class="cls-2" x="409.9" y="431.38" width="210.37" height="32"/>
    <text class="cls-7" transform="translate(419.9 450.63)"><tspan x="0" y="0">State</tspan></text>
    <text class="cls-6" transform="translate(581.22 450.63)"><tspan x="0" y="0">TEXT</tspan></text>
    <rect class="cls-2" x="409.9" y="463.38" width="210.37" height="32"/>
    <text class="cls-7" transform="translate(419.9 482.63)"><tspan x="0" y="0">Country</tspan></text>
    <text class="cls-6" transform="translate(581.22 482.63)"><tspan x="0" y="0">TEXT</tspan></text>
    <rect class="cls-2" x="409.9" y="495.38" width="210.37" height="32"/>
    <text class="cls-7" transform="translate(419.9 514.63)"><tspan x="0" y="0">DateOfBirth</tspan></text>
    <path class="cls-4" d="M588.28,501.88h20s2,0,2,2v12s0,2-2,2h-20s-2,0-2-2v-12s0-2,2-2"/>
    <path class="cls-5" d="M597.09,514.38h-1.17l-4.75-7.56h-.05c.01.2.03.43.04.69.02.25.03.53.04.82.01.29.02.58.02.88v5.17h-.94v-9h1.16l4.73,7.53h.04c0-.14-.02-.35-.03-.61-.01-.27-.02-.55-.04-.86,0-.31-.01-.59-.01-.86v-5.21h.95v9Z"/>
    <path class="cls-5" d="M606.28,514.38h-1.17l-4.75-7.56h-.05c.01.2.03.43.04.69.02.25.03.53.04.82.01.29.02.58.02.88v5.17h-.94v-9h1.16l4.73,7.53h.04c0-.14-.02-.35-.03-.61-.01-.27-.02-.55-.04-.86,0-.31-.01-.59-.01-.86v-5.21h.95v9Z"/>
    <text class="cls-6" transform="translate(550.24 514.63)"><tspan x="0" y="0">DATE</tspan></text>
    <rect class="cls-1" x="53.99" y="111.38" width="253.4" height="32"/>
    <text class="cls-9" transform="translate(63.99 130.63)"><tspan x="0" y="0">Tickets</tspan></text>
    <rect class="cls-2" x="53.99" y="143.38" width="253.4" height="32"/>
    <text class="cls-7" transform="translate(63.99 162.63)"><tspan x="0" y="0">TicketID</tspan></text>
    <path class="cls-5" d="M135.04,153.62c1.63,0,2.95,1.32,2.95,2.95s-1.32,2.95-2.95,2.95c-.39,0-.76-.08-1.1-.21l-.87.87h-.66v.98h-.98v.98h-1.97v-1.97l2.75-2.75c-.08-.28-.13-.57-.13-.86,0-1.63,1.32-2.95,2.95-2.95ZM135.04,152.63c-2.17,0-3.94,1.76-3.94,3.94,0,.18.01.36.04.54l-2.52,2.52c-.09.09-.14.22-.14.35v2.66c0,.27.22.49.49.49h2.95c.27,0,.49-.22.49-.49v-.49h.49c.27,0,.49-.22.49-.49v-.41l.82-.82c.27.06.54.09.82.09,2.17,0,3.94-1.76,3.94-3.94s-1.76-3.94-3.94-3.94ZM135.04,155.58c0,.54.44.98.98.98s.98-.44.98-.98-.44-.98-.98-.98-.98.44-.98.98Z"/>
    <text class="cls-6" transform="translate(242.43 162.63)"><tspan x="0" y="0">INTEGER</tspan></text>
    <rect class="cls-2" x="53.99" y="175.38" width="253.4" height="32"/>
    <text class="cls-7" transform="translate(63.99 194.63)"><tspan x="0" y="0">VisitorID</tspan></text>
    <path class="cls-4" d="M275.39,181.88h20s2,0,2,2v12s0,2-2,2h-20s-2,0-2-2v-12s0-2,2-2"/>
    <path class="cls-5" d="M284.2,194.38h-1.17l-4.75-7.56h-.05c.01.2.03.43.04.69.02.25.03.53.04.82.01.29.02.58.02.88v5.17h-.94v-9h1.16l4.73,7.53h.04c0-.14-.02-.35-.03-.61-.01-.27-.02-.55-.04-.86,0-.31-.01-.59-.01-.86v-5.21h.95v9Z"/>
    <path class="cls-5" d="M293.39,194.38h-1.17l-4.75-7.56h-.05c.01.2.03.43.04.69.02.25.03.53.04.82.01.29.02.58.02.88v5.17h-.94v-9h1.16l4.73,7.53h.04c0-.14-.02-.35-.03-.61-.01-.27-.02-.55-.04-.86,0-.31-.01-.59-.01-.86v-5.21h.95v9Z"/>
    <text class="cls-6" transform="translate(216.89 194.63)"><tspan x="0" y="0">INTEGER</tspan></text>
    <rect class="cls-2" x="53.99" y="207.38" width="253.4" height="32"/>
    <text class="cls-7" transform="translate(63.99 226.63)"><tspan x="0" y="0">RideID</tspan></text>
    <path class="cls-4" d="M275.39,213.88h20s2,0,2,2v12s0,2-2,2h-20s-2,0-2-2v-12s0-2,2-2"/>
    <path class="cls-5" d="M284.2,226.38h-1.17l-4.75-7.56h-.05c.01.2.03.43.04.69.02.25.03.53.04.82.01.29.02.58.02.88v5.17h-.94v-9h1.16l4.73,7.53h.04c0-.14-.02-.35-.03-.61-.01-.27-.02-.55-.04-.86,0-.31-.01-.59-.01-.86v-5.21h.95v9Z"/>
    <path class="cls-5" d="M293.39,226.38h-1.17l-4.75-7.56h-.05c.01.2.03.43.04.69.02.25.03.53.04.82.01.29.02.58.02.88v5.17h-.94v-9h1.16l4.73,7.53h.04c0-.14-.02-.35-.03-.61-.01-.27-.02-.55-.04-.86,0-.31-.01-.59-.01-.86v-5.21h.95v9Z"/>
    <text class="cls-6" transform="translate(216.89 226.63)"><tspan x="0" y="0">INTEGER</tspan></text>
    <rect class="cls-2" x="53.99" y="239.38" width="253.4" height="32"/>
    <text class="cls-7" transform="translate(63.99 258.63)"><tspan x="0" y="0">PurchaseDate</tspan></text>
    <path class="cls-4" d="M275.39,245.88h20s2,0,2,2v12s0,2-2,2h-20s-2,0-2-2v-12s0-2,2-2"/>
    <path class="cls-5" d="M284.2,258.38h-1.17l-4.75-7.56h-.05c.01.2.03.43.04.69.02.25.03.53.04.82.01.29.02.58.02.88v5.17h-.94v-9h1.16l4.73,7.53h.04c0-.14-.02-.35-.03-.61-.01-.27-.02-.55-.04-.86,0-.31-.01-.59-.01-.86v-5.21h.95v9Z"/>
    <path class="cls-5" d="M293.39,258.38h-1.17l-4.75-7.56h-.05c.01.2.03.43.04.69.02.25.03.53.04.82.01.29.02.58.02.88v5.17h-.94v-9h1.16l4.73,7.53h.04c0-.14-.02-.35-.03-.61-.01-.27-.02-.55-.04-.86,0-.31-.01-.59-.01-.86v-5.21h.95v9Z"/>
    <text class="cls-6" transform="translate(207.65 258.63)"><tspan x="0" y="0">DATETIME</tspan></text>
    <rect class="cls-2" x="53.99" y="271.38" width="253.4" height="32"/>
    <text class="cls-7" transform="translate(63.99 290.63)"><tspan x="0" y="0">Price</tspan></text>
    <path class="cls-4" d="M275.39,277.88h20s2,0,2,2v12s0,2-2,2h-20s-2,0-2-2v-12s0-2,2-2"/>
    <path class="cls-5" d="M284.2,290.38h-1.17l-4.75-7.56h-.05c.01.2.03.43.04.69.02.25.03.53.04.82.01.29.02.58.02.88v5.17h-.94v-9h1.16l4.73,7.53h.04c0-.14-.02-.35-.03-.61-.01-.27-.02-.55-.04-.86,0-.31-.01-.59-.01-.86v-5.21h.95v9Z"/>
    <path class="cls-5" d="M293.39,290.38h-1.17l-4.75-7.56h-.05c.01.2.03.43.04.69.02.25.03.53.04.82.01.29.02.58.02.88v5.17h-.94v-9h1.16l4.73,7.53h.04c0-.14-.02-.35-.03-.61-.01-.27-.02-.55-.04-.86,0-.31-.01-.59-.01-.86v-5.21h.95v9Z"/>
    <text class="cls-6" transform="translate(172.89 290.63)"><tspan x="0" y="0">DECIMAL(10,2)</tspan></text>
    <rect class="cls-1" x="1164.81" y="111.38" width="231.01" height="32"/>
    <text class="cls-9" transform="translate(1174.81 130.63)"><tspan x="0" y="0">Staff</tspan></text>
    <rect class="cls-2" x="1164.81" y="143.38" width="231.01" height="32"/>
    <text class="cls-7" transform="translate(1174.81 162.63)"><tspan x="0" y="0">StaffID</tspan></text>
    <path class="cls-5" d="M1240.01,153.62c1.63,0,2.95,1.32,2.95,2.95s-1.32,2.95-2.95,2.95c-.39,0-.76-.08-1.1-.21l-.87.87h-.66v.98h-.98v.98h-1.97v-1.97l2.75-2.75c-.08-.28-.13-.57-.13-.86,0-1.63,1.32-2.95,2.95-2.95ZM1240.01,152.63c-2.17,0-3.94,1.76-3.94,3.94,0,.18.01.36.04.54l-2.52,2.52c-.09.09-.14.22-.14.35v2.66c0,.27.22.49.49.49h2.95c.27,0,.49-.22.49-.49v-.49h.49c.27,0,.49-.22.49-.49v-.41l.82-.82c.27.06.54.09.82.09,2.17,0,3.94-1.76,3.94-3.94s-1.76-3.94-3.94-3.94ZM1240.01,155.58c0,.54.44.98.98.98s.98-.44.98-.98-.44-.98-.98-.98-.98.44-.98.98Z"/>
    <text class="cls-6" transform="translate(1330.86 162.63)"><tspan x="0" y="0">INTEGER</tspan></text>
    <rect class="cls-2" x="1164.81" y="175.38" width="231.01" height="32"/>
    <text class="cls-7" transform="translate(1174.81 194.63)"><tspan x="0" y="0">FirstName</tspan></text>
    <path class="cls-4" d="M1363.81,181.88h20s2,0,2,2v12s0,2-2,2h-20s-2,0-2-2v-12s0-2,2-2"/>
    <path class="cls-5" d="M1372.63,194.38h-1.17l-4.75-7.56h-.05c.01.2.03.43.04.69.02.25.03.53.04.82.01.29.02.58.02.88v5.17h-.94v-9h1.16l4.73,7.53h.04c0-.14-.02-.35-.03-.61-.01-.27-.02-.55-.04-.86,0-.31-.01-.59-.01-.86v-5.21h.95v9Z"/>
    <path class="cls-5" d="M1381.81,194.38h-1.17l-4.75-7.56h-.05c.01.2.03.43.04.69.02.25.03.53.04.82.01.29.02.58.02.88v5.17h-.94v-9h1.16l4.73,7.53h.04c0-.14-.02-.35-.03-.61-.01-.27-.02-.55-.04-.86,0-.31-.01-.59-.01-.86v-5.21h.95v9Z"/>
    <text class="cls-6" transform="translate(1328.76 194.63)"><tspan x="0" y="0">TEXT</tspan></text>
    <rect class="cls-2" x="1164.81" y="207.38" width="231.01" height="32"/>
    <text class="cls-7" transform="translate(1174.81 226.63)"><tspan x="0" y="0">LastName</tspan></text>
    <path class="cls-4" d="M1363.81,213.88h20s2,0,2,2v12s0,2-2,2h-20s-2,0-2-2v-12s0-2,2-2"/>
    <path class="cls-5" d="M1372.63,226.38h-1.17l-4.75-7.56h-.05c.01.2.03.43.04.69.02.25.03.53.04.82.01.29.02.58.02.88v5.17h-.94v-9h1.16l4.73,7.53h.04c0-.14-.02-.35-.03-.61-.01-.27-.02-.55-.04-.86,0-.31-.01-.59-.01-.86v-5.21h.95v9Z"/>
    <path class="cls-5" d="M1381.81,226.38h-1.17l-4.75-7.56h-.05c.01.2.03.43.04.69.02.25.03.53.04.82.01.29.02.58.02.88v5.17h-.94v-9h1.16l4.73,7.53h.04c0-.14-.02-.35-.03-.61-.01-.27-.02-.55-.04-.86,0-.31-.01-.59-.01-.86v-5.21h.95v9Z"/>
    <text class="cls-6" transform="translate(1328.76 226.63)"><tspan x="0" y="0">TEXT</tspan></text>
    <rect class="cls-2" x="1164.81" y="239.38" width="231.01" height="32"/>
    <text class="cls-7" transform="translate(1174.81 258.63)"><tspan x="0" y="0">Position</tspan></text>
    <path class="cls-4" d="M1363.81,245.88h20s2,0,2,2v12s0,2-2,2h-20s-2,0-2-2v-12s0-2,2-2"/>
    <path class="cls-5" d="M1372.63,258.38h-1.17l-4.75-7.56h-.05c.01.2.03.43.04.69.02.25.03.53.04.82.01.29.02.58.02.88v5.17h-.94v-9h1.16l4.73,7.53h.04c0-.14-.02-.35-.03-.61-.01-.27-.02-.55-.04-.86,0-.31-.01-.59-.01-.86v-5.21h.95v9Z"/>
    <path class="cls-5" d="M1381.81,258.38h-1.17l-4.75-7.56h-.05c.01.2.03.43.04.69.02.25.03.53.04.82.01.29.02.58.02.88v5.17h-.94v-9h1.16l4.73,7.53h.04c0-.14-.02-.35-.03-.61-.01-.27-.02-.55-.04-.86,0-.31-.01-.59-.01-.86v-5.21h.95v9Z"/>
    <text class="cls-6" transform="translate(1328.76 258.63)"><tspan x="0" y="0">TEXT</tspan></text>
    <rect class="cls-2" x="1164.81" y="271.38" width="231.01" height="32"/>
    <text class="cls-7" transform="translate(1174.81 290.63)"><tspan x="0" y="0">Email</tspan></text>
    <path class="cls-4" d="M1363.81,277.88h20s2,0,2,2v12s0,2-2,2h-20s-2,0-2-2v-12s0-2,2-2"/>
    <path class="cls-5" d="M1372.63,290.38h-1.17l-4.75-7.56h-.05c.01.2.03.43.04.69.02.25.03.53.04.82.01.29.02.58.02.88v5.17h-.94v-9h1.16l4.73,7.53h.04c0-.14-.02-.35-.03-.61-.01-.27-.02-.55-.04-.86,0-.31-.01-.59-.01-.86v-5.21h.95v9Z"/>
    <path class="cls-5" d="M1381.81,290.38h-1.17l-4.75-7.56h-.05c.01.2.03.43.04.69.02.25.03.53.04.82.01.29.02.58.02.88v5.17h-.94v-9h1.16l4.73,7.53h.04c0-.14-.02-.35-.03-.61-.01-.27-.02-.55-.04-.86,0-.31-.01-.59-.01-.86v-5.21h.95v9Z"/>
    <text class="cls-6" transform="translate(1328.76 290.63)"><tspan x="0" y="0">TEXT</tspan></text>
    <rect class="cls-2" x="1164.81" y="303.38" width="231.01" height="32"/>
    <text class="cls-7" transform="translate(1174.81 322.63)"><tspan x="0" y="0">PhoneNumber</tspan></text>
    <text class="cls-6" transform="translate(1356.76 322.63)"><tspan x="0" y="0">TEXT</tspan></text>
    <rect class="cls-2" x="1164.81" y="335.38" width="231.01" height="32"/>
    <text class="cls-7" transform="translate(1174.81 354.63)"><tspan x="0" y="0">DateOfBirth</tspan></text>
    <path class="cls-4" d="M1363.81,341.88h20s2,0,2,2v12s0,2-2,2h-20s-2,0-2-2v-12s0-2,2-2"/>
    <path class="cls-5" d="M1372.63,354.38h-1.17l-4.75-7.56h-.05c.01.2.03.43.04.69.02.25.03.53.04.82.01.29.02.58.02.88v5.17h-.94v-9h1.16l4.73,7.53h.04c0-.14-.02-.35-.03-.61-.01-.27-.02-.55-.04-.86,0-.31-.01-.59-.01-.86v-5.21h.95v9Z"/>
    <path class="cls-5" d="M1381.81,354.38h-1.17l-4.75-7.56h-.05c.01.2.03.43.04.69.02.25.03.53.04.82.01.29.02.58.02.88v5.17h-.94v-9h1.16l4.73,7.53h.04c0-.14-.02-.35-.03-.61-.01-.27-.02-.55-.04-.86,0-.31-.01-.59-.01-.86v-5.21h.95v9Z"/>
    <text class="cls-6" transform="translate(1325.78 354.63)"><tspan x="0" y="0">DATE</tspan></text>
    <rect class="cls-2" x="1164.81" y="367.38" width="231.01" height="32"/>
    <text class="cls-7" transform="translate(1174.81 386.63)"><tspan x="0" y="0">DateJoined</tspan></text>
    <path class="cls-4" d="M1363.81,373.88h20s2,0,2,2v12s0,2-2,2h-20s-2,0-2-2v-12s0-2,2-2"/>
    <path class="cls-5" d="M1372.63,386.38h-1.17l-4.75-7.56h-.05c.01.2.03.43.04.69.02.25.03.53.04.82.01.29.02.58.02.88v5.17h-.94v-9h1.16l4.73,7.53h.04c0-.14-.02-.35-.03-.61-.01-.27-.02-.55-.04-.86,0-.31-.01-.59-.01-.86v-5.21h.95v9Z"/>
    <path class="cls-5" d="M1381.81,386.38h-1.17l-4.75-7.56h-.05c.01.2.03.43.04.69.02.25.03.53.04.82.01.29.02.58.02.88v5.17h-.94v-9h1.16l4.73,7.53h.04c0-.14-.02-.35-.03-.61-.01-.27-.02-.55-.04-.86,0-.31-.01-.59-.01-.86v-5.21h.95v9Z"/>
    <text class="cls-6" transform="translate(1325.78 386.63)"><tspan x="0" y="0">DATE</tspan></text>
    <rect class="cls-2" x="1164.81" y="399.38" width="231.01" height="32"/>
    <text class="cls-7" transform="translate(1174.81 418.63)"><tspan x="0" y="0">Salary</tspan></text>
    <path class="cls-4" d="M1363.81,405.88h20s2,0,2,2v12s0,2-2,2h-20s-2,0-2-2v-12s0-2,2-2"/>
    <path class="cls-5" d="M1372.63,418.38h-1.17l-4.75-7.56h-.05c.01.2.03.43.04.69.02.25.03.53.04.82.01.29.02.58.02.88v5.17h-.94v-9h1.16l4.73,7.53h.04c0-.14-.02-.35-.03-.61-.01-.27-.02-.55-.04-.86,0-.31-.01-.59-.01-.86v-5.21h.95v9Z"/>
    <path class="cls-5" d="M1381.81,418.38h-1.17l-4.75-7.56h-.05c.01.2.03.43.04.69.02.25.03.53.04.82.01.29.02.58.02.88v5.17h-.94v-9h1.16l4.73,7.53h.04c0-.14-.02-.35-.03-.61-.01-.27-.02-.55-.04-.86,0-.31-.01-.59-.01-.86v-5.21h.95v9Z"/>
    <text class="cls-6" transform="translate(1258.31 418.63)"><tspan x="0" y="0">DECIMAL(10,2)</tspan></text>
    <rect class="cls-2" x="1164.81" y="431.38" width="231.01" height="32"/>
    <text class="cls-7" transform="translate(1174.81 450.63)"><tspan x="0" y="0">Address</tspan></text>
    <text class="cls-6" transform="translate(1356.76 450.63)"><tspan x="0" y="0">TEXT</tspan></text>
    <rect class="cls-2" x="1164.81" y="463.38" width="231.01" height="32"/>
    <text class="cls-7" transform="translate(1174.81 482.63)"><tspan x="0" y="0">City</tspan></text>
    <text class="cls-6" transform="translate(1356.76 482.63)"><tspan x="0" y="0">TEXT</tspan></text>
    <rect class="cls-2" x="1164.81" y="495.38" width="231.01" height="32"/>
    <text class="cls-7" transform="translate(1174.81 514.63)"><tspan x="0" y="0">State</tspan></text>
    <text class="cls-6" transform="translate(1356.76 514.63)"><tspan x="0" y="0">TEXT</tspan></text>
    <rect class="cls-2" x="1164.81" y="527.38" width="231.01" height="32"/>
    <text class="cls-7" transform="translate(1174.81 546.63)"><tspan x="0" y="0">Country</tspan></text>
    <text class="cls-6" transform="translate(1356.76 546.63)"><tspan x="0" y="0">TEXT</tspan></text>
    <rect class="cls-1" x="391.72" y="588.26" width="246.75" height="32"/>
    <text class="cls-9" transform="translate(401.72 607.51)"><tspan x="0" y="0">Facilities</tspan></text>
    <rect class="cls-2" x="391.72" y="620.26" width="246.75" height="32"/>
    <text class="cls-7" transform="translate(401.72 639.51)"><tspan x="0" y="0">FacilityID</tspan></text>
    <path class="cls-5" d="M487.82,630.5c1.63,0,2.95,1.32,2.95,2.95s-1.32,2.95-2.95,2.95c-.39,0-.76-.08-1.1-.21l-.87.87h-.66v.98h-.98v.98h-1.97v-1.97l2.75-2.75c-.08-.28-.13-.57-.13-.86,0-1.63,1.32-2.95,2.95-2.95ZM487.82,629.51c-2.17,0-3.94,1.76-3.94,3.94,0,.18.01.36.04.54l-2.52,2.52c-.09.09-.14.22-.14.35v2.66c0,.27.22.49.49.49h2.95c.27,0,.49-.22.49-.49v-.49h.49c.27,0,.49-.22.49-.49v-.41l.82-.82c.27.06.54.09.82.09,2.17,0,3.94-1.76,3.94-3.94s-1.76-3.94-3.94-3.94ZM487.82,632.46c0,.54.44.98.98.98s.98-.44.98-.98-.44-.98-.98-.98-.98.44-.98.98Z"/>
    <text class="cls-6" transform="translate(573.51 639.51)"><tspan x="0" y="0">INTEGER</tspan></text>
    <rect class="cls-2" x="391.72" y="652.26" width="246.75" height="32"/>
    <text class="cls-7" transform="translate(401.72 671.51)"><tspan x="0" y="0">Name</tspan></text>
    <path class="cls-4" d="M606.47,658.76h20s2,0,2,2v12s0,2-2,2h-20s-2,0-2-2v-12s0-2,2-2"/>
    <path class="cls-5" d="M615.28,671.26h-1.17l-4.75-7.56h-.05c.01.2.03.43.04.69.02.25.03.53.04.82.01.29.02.58.02.88v5.17h-.94v-9h1.16l4.73,7.53h.04c0-.14-.02-.35-.03-.61-.01-.27-.02-.55-.04-.86,0-.31-.01-.59-.01-.86v-5.21h.95v9Z"/>
    <path class="cls-5" d="M624.47,671.26h-1.17l-4.75-7.56h-.05c.01.2.03.43.04.69.02.25.03.53.04.82.01.29.02.58.02.88v5.17h-.94v-9h1.16l4.73,7.53h.04c0-.14-.02-.35-.03-.61-.01-.27-.02-.55-.04-.86,0-.31-.01-.59-.01-.86v-5.21h.95v9Z"/>
    <text class="cls-6" transform="translate(571.41 671.51)"><tspan x="0" y="0">TEXT</tspan></text>
    <rect class="cls-2" x="391.72" y="684.26" width="246.75" height="32"/>
    <text class="cls-7" transform="translate(401.72 703.51)"><tspan x="0" y="0">Description</tspan></text>
    <path class="cls-4" d="M606.47,690.76h20s2,0,2,2v12s0,2-2,2h-20s-2,0-2-2v-12s0-2,2-2"/>
    <path class="cls-5" d="M615.28,703.26h-1.17l-4.75-7.56h-.05c.01.2.03.43.04.69.02.25.03.53.04.82.01.29.02.58.02.88v5.17h-.94v-9h1.16l4.73,7.53h.04c0-.14-.02-.35-.03-.61-.01-.27-.02-.55-.04-.86,0-.31-.01-.59-.01-.86v-5.21h.95v9Z"/>
    <path class="cls-5" d="M624.47,703.26h-1.17l-4.75-7.56h-.05c.01.2.03.43.04.69.02.25.03.53.04.82.01.29.02.58.02.88v5.17h-.94v-9h1.16l4.73,7.53h.04c0-.14-.02-.35-.03-.61-.01-.27-.02-.55-.04-.86,0-.31-.01-.59-.01-.86v-5.21h.95v9Z"/>
    <text class="cls-6" transform="translate(571.41 703.51)"><tspan x="0" y="0">TEXT</tspan></text>
    <rect class="cls-2" x="391.72" y="716.26" width="246.75" height="32"/>
    <text class="cls-7" transform="translate(401.72 735.51)"><tspan x="0" y="0">Location</tspan></text>
    <path class="cls-4" d="M606.47,722.76h20s2,0,2,2v12s0,2-2,2h-20s-2,0-2-2v-12s0-2,2-2"/>
    <path class="cls-5" d="M615.28,735.26h-1.17l-4.75-7.56h-.05c.01.2.03.43.04.69.02.25.03.53.04.82.01.29.02.58.02.88v5.17h-.94v-9h1.16l4.73,7.53h.04c0-.14-.02-.35-.03-.61-.01-.27-.02-.55-.04-.86,0-.31-.01-.59-.01-.86v-5.21h.95v9Z"/>
    <path class="cls-5" d="M624.47,735.26h-1.17l-4.75-7.56h-.05c.01.2.03.43.04.69.02.25.03.53.04.82.01.29.02.58.02.88v5.17h-.94v-9h1.16l4.73,7.53h.04c0-.14-.02-.35-.03-.61-.01-.27-.02-.55-.04-.86,0-.31-.01-.59-.01-.86v-5.21h.95v9Z"/>
    <text class="cls-6" transform="translate(571.41 735.51)"><tspan x="0" y="0">TEXT</tspan></text>
    <rect class="cls-2" x="391.72" y="748.26" width="246.75" height="32"/>
    <text class="cls-7" transform="translate(401.72 767.51)"><tspan x="0" y="0">Capacity</tspan></text>
    <path class="cls-4" d="M606.47,754.76h20s2,0,2,2v12s0,2-2,2h-20s-2,0-2-2v-12s0-2,2-2"/>
    <path class="cls-5" d="M615.28,767.26h-1.17l-4.75-7.56h-.05c.01.2.03.43.04.69.02.25.03.53.04.82.01.29.02.58.02.88v5.17h-.94v-9h1.16l4.73,7.53h.04c0-.14-.02-.35-.03-.61-.01-.27-.02-.55-.04-.86,0-.31-.01-.59-.01-.86v-5.21h.95v9Z"/>
    <path class="cls-5" d="M624.47,767.26h-1.17l-4.75-7.56h-.05c.01.2.03.43.04.69.02.25.03.53.04.82.01.29.02.58.02.88v5.17h-.94v-9h1.16l4.73,7.53h.04c0-.14-.02-.35-.03-.61-.01-.27-.02-.55-.04-.86,0-.31-.01-.59-.01-.86v-5.21h.95v9Z"/>
    <text class="cls-6" transform="translate(547.96 767.51)"><tspan x="0" y="0">INTEGER</tspan></text>
    <rect class="cls-2" x="391.72" y="780.26" width="246.75" height="32"/>
    <text class="cls-7" transform="translate(401.72 799.51)"><tspan x="0" y="0">Status</tspan></text>
    <path class="cls-4" d="M606.47,786.76h20s2,0,2,2v12s0,2-2,2h-20s-2,0-2-2v-12s0-2,2-2"/>
    <path class="cls-5" d="M615.28,799.26h-1.17l-4.75-7.56h-.05c.01.2.03.43.04.69.02.25.03.53.04.82.01.29.02.58.02.88v5.17h-.94v-9h1.16l4.73,7.53h.04c0-.14-.02-.35-.03-.61-.01-.27-.02-.55-.04-.86,0-.31-.01-.59-.01-.86v-5.21h.95v9Z"/>
    <path class="cls-5" d="M624.47,799.26h-1.17l-4.75-7.56h-.05c.01.2.03.43.04.69.02.25.03.53.04.82.01.29.02.58.02.88v5.17h-.94v-9h1.16l4.73,7.53h.04c0-.14-.02-.35-.03-.61-.01-.27-.02-.55-.04-.86,0-.31-.01-.59-.01-.86v-5.21h.95v9Z"/>
    <text class="cls-6" transform="translate(571.41 799.51)"><tspan x="0" y="0">TEXT</tspan></text>
    <rect class="cls-2" x="391.72" y="812.26" width="246.75" height="32"/>
    <text class="cls-7" transform="translate(401.72 831.51)"><tspan x="0" y="0">LastMaintenanceDate</tspan></text>
    <text class="cls-6" transform="translate(596.43 831.51)"><tspan x="0" y="0">DATE</tspan></text>
    <rect class="cls-1" x="735.72" y="556.26" width="247.45" height="32"/>
    <text class="cls-9" transform="translate(745.72 575.51)"><tspan x="0" y="0">Maintenance</tspan></text>
    <rect class="cls-2" x="735.72" y="588.26" width="247.45" height="32"/>
    <text class="cls-7" transform="translate(745.72 607.51)"><tspan x="0" y="0">MaintenanceID</tspan></text>
    <path class="cls-5" d="M855.45,598.5c1.63,0,2.95,1.32,2.95,2.95s-1.32,2.95-2.95,2.95c-.39,0-.76-.08-1.1-.21l-.87.87h-.66v.98h-.98v.98h-1.97v-1.97l2.75-2.75c-.08-.28-.13-.57-.13-.86,0-1.63,1.32-2.95,2.95-2.95ZM855.45,597.51c-2.17,0-3.94,1.76-3.94,3.94,0,.18.01.36.04.54l-2.52,2.52c-.09.09-.14.22-.14.35v2.66c0,.27.22.49.49.49h2.95c.27,0,.49-.22.49-.49v-.49h.49c.27,0,.49-.22.49-.49v-.41l.82-.82c.27.06.54.09.82.09,2.17,0,3.94-1.76,3.94-3.94s-1.76-3.94-3.94-3.94ZM855.45,600.46c0,.54.44.98.98.98s.98-.44.98-.98-.44-.98-.98-.98-.98.44-.98.98Z"/>
    <text class="cls-6" transform="translate(918.21 607.51)"><tspan x="0" y="0">INTEGER</tspan></text>
    <rect class="cls-2" x="735.72" y="620.26" width="247.45" height="32"/>
    <text class="cls-7" transform="translate(745.72 639.51)"><tspan x="0" y="0">ItemID</tspan></text>
    <path class="cls-4" d="M951.16,626.76h20s2,0,2,2v12s0,2-2,2h-20s-2,0-2-2v-12s0-2,2-2"/>
    <path class="cls-5" d="M959.98,639.26h-1.17l-4.75-7.56h-.05c.01.2.03.43.04.69.02.25.03.53.04.82.01.29.02.58.02.88v5.17h-.94v-9h1.16l4.73,7.53h.04c0-.14-.02-.35-.03-.61-.01-.27-.02-.55-.04-.86,0-.31-.01-.59-.01-.86v-5.21h.95v9Z"/>
    <path class="cls-5" d="M969.16,639.26h-1.17l-4.75-7.56h-.05c.01.2.03.43.04.69.02.25.03.53.04.82.01.29.02.58.02.88v5.17h-.94v-9h1.16l4.73,7.53h.04c0-.14-.02-.35-.03-.61-.01-.27-.02-.55-.04-.86,0-.31-.01-.59-.01-.86v-5.21h.95v9Z"/>
    <text class="cls-6" transform="translate(892.66 639.51)"><tspan x="0" y="0">INTEGER</tspan></text>
    <rect class="cls-2" x="735.72" y="652.26" width="247.45" height="32"/>
    <text class="cls-7" transform="translate(745.72 671.51)"><tspan x="0" y="0">RideID</tspan></text>
    <text class="cls-6" transform="translate(920.66 671.51)"><tspan x="0" y="0">INTEGER</tspan></text>
    <rect class="cls-2" x="735.72" y="684.26" width="247.45" height="32"/>
    <text class="cls-7" transform="translate(745.72 703.51)"><tspan x="0" y="0">FacilityID</tspan></text>
    <text class="cls-6" transform="translate(920.66 703.51)"><tspan x="0" y="0">INTEGER</tspan></text>
    <rect class="cls-2" x="735.72" y="716.26" width="247.45" height="32"/>
    <text class="cls-7" transform="translate(745.72 735.51)"><tspan x="0" y="0">ItemType</tspan></text>
    <path class="cls-4" d="M951.16,722.76h20s2,0,2,2v12s0,2-2,2h-20s-2,0-2-2v-12s0-2,2-2"/>
    <path class="cls-5" d="M959.98,735.26h-1.17l-4.75-7.56h-.05c.01.2.03.43.04.69.02.25.03.53.04.82.01.29.02.58.02.88v5.17h-.94v-9h1.16l4.73,7.53h.04c0-.14-.02-.35-.03-.61-.01-.27-.02-.55-.04-.86,0-.31-.01-.59-.01-.86v-5.21h.95v9Z"/>
    <path class="cls-5" d="M969.16,735.26h-1.17l-4.75-7.56h-.05c.01.2.03.43.04.69.02.25.03.53.04.82.01.29.02.58.02.88v5.17h-.94v-9h1.16l4.73,7.53h.04c0-.14-.02-.35-.03-.61-.01-.27-.02-.55-.04-.86,0-.31-.01-.59-.01-.86v-5.21h.95v9Z"/>
    <text class="cls-6" transform="translate(916.11 735.51)"><tspan x="0" y="0">TEXT</tspan></text>
    <rect class="cls-2" x="735.72" y="748.26" width="247.45" height="32"/>
    <text class="cls-7" transform="translate(745.72 767.51)"><tspan x="0" y="0">Description</tspan></text>
    <text class="cls-6" transform="translate(944.11 767.51)"><tspan x="0" y="0">TEXT</tspan></text>
    <rect class="cls-2" x="735.72" y="780.26" width="247.45" height="32"/>
    <text class="cls-7" transform="translate(745.72 799.51)"><tspan x="0" y="0">MaintenanceDate</tspan></text>
    <path class="cls-4" d="M951.16,786.76h20s2,0,2,2v12s0,2-2,2h-20s-2,0-2-2v-12s0-2,2-2"/>
    <path class="cls-5" d="M959.98,799.26h-1.17l-4.75-7.56h-.05c.01.2.03.43.04.69.02.25.03.53.04.82.01.29.02.58.02.88v5.17h-.94v-9h1.16l4.73,7.53h.04c0-.14-.02-.35-.03-.61-.01-.27-.02-.55-.04-.86,0-.31-.01-.59-.01-.86v-5.21h.95v9Z"/>
    <path class="cls-5" d="M969.16,799.26h-1.17l-4.75-7.56h-.05c.01.2.03.43.04.69.02.25.03.53.04.82.01.29.02.58.02.88v5.17h-.94v-9h1.16l4.73,7.53h.04c0-.14-.02-.35-.03-.61-.01-.27-.02-.55-.04-.86,0-.31-.01-.59-.01-.86v-5.21h.95v9Z"/>
    <text class="cls-6" transform="translate(913.13 799.51)"><tspan x="0" y="0">DATE</tspan></text>
    <rect class="cls-2" x="735.72" y="812.26" width="247.45" height="32"/>
    <text class="cls-7" transform="translate(745.72 831.51)"><tspan x="0" y="0">Cost</tspan></text>
    <path class="cls-4" d="M951.16,818.76h20s2,0,2,2v12s0,2-2,2h-20s-2,0-2-2v-12s0-2,2-2"/>
    <path class="cls-5" d="M959.98,831.26h-1.17l-4.75-7.56h-.05c.01.2.03.43.04.69.02.25.03.53.04.82.01.29.02.58.02.88v5.17h-.94v-9h1.16l4.73,7.53h.04c0-.14-.02-.35-.03-.61-.01-.27-.02-.55-.04-.86,0-.31-.01-.59-.01-.86v-5.21h.95v9Z"/>
    <path class="cls-5" d="M969.16,831.26h-1.17l-4.75-7.56h-.05c.01.2.03.43.04.69.02.25.03.53.04.82.01.29.02.58.02.88v5.17h-.94v-9h1.16l4.73,7.53h.04c0-.14-.02-.35-.03-.61-.01-.27-.02-.55-.04-.86,0-.31-.01-.59-.01-.86v-5.21h.95v9Z"/>
    <text class="cls-6" transform="translate(847.66 831.51)"><tspan x="0" y="0">DECIMAL(10,2)</tspan></text>
    <rect class="cls-1" x="76.03" y="349.78" width="209.33" height="32"/>
    <text class="cls-9" transform="translate(86.03 369.03)"><tspan x="0" y="0">RideReviews</tspan></text>
    <rect class="cls-2" x="76.03" y="381.78" width="209.33" height="32"/>
    <text class="cls-7" transform="translate(86.03 401.03)"><tspan x="0" y="0">ReviewID</tspan></text>
    <path class="cls-5" d="M156.95,392.01c1.63,0,2.95,1.32,2.95,2.95s-1.32,2.95-2.95,2.95c-.39,0-.76-.08-1.1-.21l-.87.87h-.66v.98h-.98v.98h-1.97v-1.97l2.75-2.75c-.08-.28-.13-.57-.13-.86,0-1.63,1.32-2.95,2.95-2.95ZM156.95,391.03c-2.17,0-3.94,1.76-3.94,3.94,0,.18.01.36.04.54l-2.52,2.52c-.09.09-.14.22-.14.35v2.66c0,.27.22.49.49.49h2.95c.27,0,.49-.22.49-.49v-.49h.49c.27,0,.49-.22.49-.49v-.41l.82-.82c.27.06.54.09.82.09,2.17,0,3.94-1.76,3.94-3.94s-1.76-3.94-3.94-3.94ZM156.95,393.98c0,.54.44.98.98.98s.98-.44.98-.98-.44-.98-.98-.98-.98.44-.98.98Z"/>
    <text class="cls-6" transform="translate(220.39 401.03)"><tspan x="0" y="0">INTEGER</tspan></text>
    <rect class="cls-2" x="76.03" y="413.78" width="209.33" height="32"/>
    <text class="cls-7" transform="translate(86.03 433.03)"><tspan x="0" y="0">RideID</tspan></text>
    <path class="cls-4" d="M253.35,420.28h20s2,0,2,2v12s0,2-2,2h-20s-2,0-2-2v-12s0-2,2-2"/>
    <path class="cls-5" d="M262.16,432.78h-1.17l-4.75-7.56h-.05c.01.2.03.43.04.69.02.25.03.53.04.82.01.29.02.58.02.88v5.17h-.94v-9h1.16l4.73,7.53h.04c0-.14-.02-.35-.03-.61-.01-.27-.02-.55-.04-.86,0-.31-.01-.59-.01-.86v-5.21h.95v9Z"/>
    <path class="cls-5" d="M271.35,432.78h-1.17l-4.75-7.56h-.05c.01.2.03.43.04.69.02.25.03.53.04.82.01.29.02.58.02.88v5.17h-.94v-9h1.16l4.73,7.53h.04c0-.14-.02-.35-.03-.61-.01-.27-.02-.55-.04-.86,0-.31-.01-.59-.01-.86v-5.21h.95v9Z"/>
    <text class="cls-6" transform="translate(194.85 433.03)"><tspan x="0" y="0">INTEGER</tspan></text>
    <rect class="cls-2" x="76.03" y="445.78" width="209.33" height="32"/>
    <text class="cls-7" transform="translate(86.03 465.03)"><tspan x="0" y="0">VisitorID</tspan></text>
    <path class="cls-4" d="M253.35,452.28h20s2,0,2,2v12s0,2-2,2h-20s-2,0-2-2v-12s0-2,2-2"/>
    <path class="cls-5" d="M262.16,464.78h-1.17l-4.75-7.56h-.05c.01.2.03.43.04.69.02.25.03.53.04.82.01.29.02.58.02.88v5.17h-.94v-9h1.16l4.73,7.53h.04c0-.14-.02-.35-.03-.61-.01-.27-.02-.55-.04-.86,0-.31-.01-.59-.01-.86v-5.21h.95v9Z"/>
    <path class="cls-5" d="M271.35,464.78h-1.17l-4.75-7.56h-.05c.01.2.03.43.04.69.02.25.03.53.04.82.01.29.02.58.02.88v5.17h-.94v-9h1.16l4.73,7.53h.04c0-.14-.02-.35-.03-.61-.01-.27-.02-.55-.04-.86,0-.31-.01-.59-.01-.86v-5.21h.95v9Z"/>
    <text class="cls-6" transform="translate(194.85 465.03)"><tspan x="0" y="0">INTEGER</tspan></text>
    <rect class="cls-2" x="76.03" y="477.78" width="209.33" height="32"/>
    <text class="cls-7" transform="translate(86.03 497.03)"><tspan x="0" y="0">Rating</tspan></text>
    <path class="cls-4" d="M253.35,484.28h20s2,0,2,2v12s0,2-2,2h-20s-2,0-2-2v-12s0-2,2-2"/>
    <path class="cls-5" d="M262.16,496.78h-1.17l-4.75-7.56h-.05c.01.2.03.43.04.69.02.25.03.53.04.82.01.29.02.58.02.88v5.17h-.94v-9h1.16l4.73,7.53h.04c0-.14-.02-.35-.03-.61-.01-.27-.02-.55-.04-.86,0-.31-.01-.59-.01-.86v-5.21h.95v9Z"/>
    <path class="cls-5" d="M271.35,496.78h-1.17l-4.75-7.56h-.05c.01.2.03.43.04.69.02.25.03.53.04.82.01.29.02.58.02.88v5.17h-.94v-9h1.16l4.73,7.53h.04c0-.14-.02-.35-.03-.61-.01-.27-.02-.55-.04-.86,0-.31-.01-.59-.01-.86v-5.21h.95v9Z"/>
    <text class="cls-6" transform="translate(194.85 497.03)"><tspan x="0" y="0">INTEGER</tspan></text>
    <rect class="cls-2" x="76.03" y="509.78" width="209.33" height="32"/>
    <text class="cls-7" transform="translate(86.03 529.03)"><tspan x="0" y="0">Review</tspan></text>
    <text class="cls-6" transform="translate(246.3 529.03)"><tspan x="0" y="0">TEXT</tspan></text>
    <rect class="cls-2" x="76.03" y="541.78" width="209.33" height="32"/>
    <text class="cls-7" transform="translate(86.03 561.03)"><tspan x="0" y="0">ReviewDate</tspan></text>
    <path class="cls-4" d="M253.35,548.28h20s2,0,2,2v12s0,2-2,2h-20s-2,0-2-2v-12s0-2,2-2"/>
    <path class="cls-5" d="M262.16,560.78h-1.17l-4.75-7.56h-.05c.01.2.03.43.04.69.02.25.03.53.04.82.01.29.02.58.02.88v5.17h-.94v-9h1.16l4.73,7.53h.04c0-.14-.02-.35-.03-.61-.01-.27-.02-.55-.04-.86,0-.31-.01-.59-.01-.86v-5.21h.95v9Z"/>
    <path class="cls-5" d="M271.35,560.78h-1.17l-4.75-7.56h-.05c.01.2.03.43.04.69.02.25.03.53.04.82.01.29.02.58.02.88v5.17h-.94v-9h1.16l4.73,7.53h.04c0-.14-.02-.35-.03-.61-.01-.27-.02-.55-.04-.86,0-.31-.01-.59-.01-.86v-5.21h.95v9Z"/>
    <text class="cls-6" transform="translate(215.32 561.03)"><tspan x="0" y="0">DATE</tspan></text>
    <rect class="cls-1" x="1161.02" y="652.26" width="238.58" height="32"/>
    <text class="cls-9" transform="translate(1171.02 671.51)"><tspan x="0" y="0">RideAssignments</tspan></text>
    <rect class="cls-2" x="1161.02" y="684.26" width="238.58" height="32"/>
    <text class="cls-7" transform="translate(1171.02 703.51)"><tspan x="0" y="0">AssignmentID</tspan></text>
    <path class="cls-5" d="M1271.89,694.5c1.63,0,2.95,1.32,2.95,2.95s-1.32,2.95-2.95,2.95c-.39,0-.76-.08-1.1-.21l-.87.87h-.66v.98h-.98v.98h-1.97v-1.97l2.75-2.75c-.08-.28-.13-.57-.13-.86,0-1.63,1.32-2.95,2.95-2.95ZM1271.89,693.51c-2.17,0-3.94,1.76-3.94,3.94,0,.18.01.36.04.54l-2.52,2.52c-.09.09-.14.22-.14.35v2.66c0,.27.22.49.49.49h2.95c.27,0,.49-.22.49-.49v-.49h.49c.27,0,.49-.22.49-.49v-.41l.82-.82c.27.06.54.09.82.09,2.17,0,3.94-1.76,3.94-3.94s-1.76-3.94-3.94-3.94ZM1271.89,696.46c0,.54.44.98.98.98s.98-.44.98-.98-.44-.98-.98-.98-.98.44-.98.98Z"/>
    <text class="cls-6" transform="translate(1334.64 703.51)"><tspan x="0" y="0">INTEGER</tspan></text>
    <rect class="cls-2" x="1161.02" y="716.26" width="238.58" height="32"/>
    <text class="cls-7" transform="translate(1171.02 735.51)"><tspan x="0" y="0">RideID</tspan></text>
    <path class="cls-4" d="M1367.6,722.76h20s2,0,2,2v12s0,2-2,2h-20s-2,0-2-2v-12s0-2,2-2"/>
    <path class="cls-5" d="M1376.41,735.26h-1.17l-4.75-7.56h-.05c.01.2.03.43.04.69.02.25.03.53.04.82.01.29.02.58.02.88v5.17h-.94v-9h1.16l4.73,7.53h.04c0-.14-.02-.35-.03-.61-.01-.27-.02-.55-.04-.86,0-.31-.01-.59-.01-.86v-5.21h.95v9Z"/>
    <path class="cls-5" d="M1385.6,735.26h-1.17l-4.75-7.56h-.05c.01.2.03.43.04.69.02.25.03.53.04.82.01.29.02.58.02.88v5.17h-.94v-9h1.16l4.73,7.53h.04c0-.14-.02-.35-.03-.61-.01-.27-.02-.55-.04-.86,0-.31-.01-.59-.01-.86v-5.21h.95v9Z"/>
    <text class="cls-6" transform="translate(1309.1 735.51)"><tspan x="0" y="0">INTEGER</tspan></text>
    <rect class="cls-2" x="1161.02" y="748.26" width="238.58" height="32"/>
    <text class="cls-7" transform="translate(1171.02 767.51)"><tspan x="0" y="0">StaffID</tspan></text>
    <path class="cls-4" d="M1367.6,754.76h20s2,0,2,2v12s0,2-2,2h-20s-2,0-2-2v-12s0-2,2-2"/>
    <path class="cls-5" d="M1376.41,767.26h-1.17l-4.75-7.56h-.05c.01.2.03.43.04.69.02.25.03.53.04.82.01.29.02.58.02.88v5.17h-.94v-9h1.16l4.73,7.53h.04c0-.14-.02-.35-.03-.61-.01-.27-.02-.55-.04-.86,0-.31-.01-.59-.01-.86v-5.21h.95v9Z"/>
    <path class="cls-5" d="M1385.6,767.26h-1.17l-4.75-7.56h-.05c.01.2.03.43.04.69.02.25.03.53.04.82.01.29.02.58.02.88v5.17h-.94v-9h1.16l4.73,7.53h.04c0-.14-.02-.35-.03-.61-.01-.27-.02-.55-.04-.86,0-.31-.01-.59-.01-.86v-5.21h.95v9Z"/>
    <text class="cls-6" transform="translate(1309.1 767.51)"><tspan x="0" y="0">INTEGER</tspan></text>
    <rect class="cls-2" x="1161.02" y="780.26" width="238.58" height="32"/>
    <text class="cls-7" transform="translate(1171.02 799.51)"><tspan x="0" y="0">AssignmentType</tspan></text>
    <path class="cls-4" d="M1367.6,786.76h20s2,0,2,2v12s0,2-2,2h-20s-2,0-2-2v-12s0-2,2-2"/>
    <path class="cls-5" d="M1376.41,799.26h-1.17l-4.75-7.56h-.05c.01.2.03.43.04.69.02.25.03.53.04.82.01.29.02.58.02.88v5.17h-.94v-9h1.16l4.73,7.53h.04c0-.14-.02-.35-.03-.61-.01-.27-.02-.55-.04-.86,0-.31-.01-.59-.01-.86v-5.21h.95v9Z"/>
    <path class="cls-5" d="M1385.6,799.26h-1.17l-4.75-7.56h-.05c.01.2.03.43.04.69.02.25.03.53.04.82.01.29.02.58.02.88v5.17h-.94v-9h1.16l4.73,7.53h.04c0-.14-.02-.35-.03-.61-.01-.27-.02-.55-.04-.86,0-.31-.01-.59-.01-.86v-5.21h.95v9Z"/>
    <text class="cls-6" transform="translate(1332.55 799.51)"><tspan x="0" y="0">TEXT</tspan></text>
    <rect class="cls-2" x="1161.02" y="812.26" width="238.58" height="32"/>
    <text class="cls-7" transform="translate(1171.02 831.51)"><tspan x="0" y="0">AssignmentDate</tspan></text>
    <path class="cls-4" d="M1367.6,818.76h20s2,0,2,2v12s0,2-2,2h-20s-2,0-2-2v-12s0-2,2-2"/>
    <path class="cls-5" d="M1376.41,831.26h-1.17l-4.75-7.56h-.05c.01.2.03.43.04.69.02.25.03.53.04.82.01.29.02.58.02.88v5.17h-.94v-9h1.16l4.73,7.53h.04c0-.14-.02-.35-.03-.61-.01-.27-.02-.55-.04-.86,0-.31-.01-.59-.01-.86v-5.21h.95v9Z"/>
    <path class="cls-5" d="M1385.6,831.26h-1.17l-4.75-7.56h-.05c.01.2.03.43.04.69.02.25.03.53.04.82.01.29.02.58.02.88v5.17h-.94v-9h1.16l4.73,7.53h.04c0-.14-.02-.35-.03-.61-.01-.27-.02-.55-.04-.86,0-.31-.01-.59-.01-.86v-5.21h.95v9Z"/>
    <text class="cls-6" transform="translate(1329.56 831.51)"><tspan x="0" y="0">DATE</tspan></text>
  </g>
</svg>